<?xml version="1.0" encoding="UTF-8" standalone="no"?>
<svg width="523px" height="550px" viewBox="0 0 523 550" version="1.1" xmlns="http://www.w3.org/2000/svg" xmlns:xlink="http://www.w3.org/1999/xlink">
    <!-- Generator: Sketch 3.8.3 (29802) - http://www.bohemiancoding.com/sketch -->
    <title>Path 2</title>
    <desc>Created with Sketch.</desc>
    <defs></defs>
    <g id="Logo-Design" stroke="none" stroke-width="1" fill="none" fill-rule="evenodd">
        <g id="Icon-Copy" transform="translate(-39.000000, -25.000000)" fill="#979797">
            <path d="M400.037988,53.0001747 L467.95629,53.0001747 C504.382419,53.0001747 534,82.7396468 534,119.301202 L534,399.301986 C534,435.936287 504.433269,465.603014 467.956295,465.603014 L400.037998,465.603014 C391.025956,465.603014 384.36143,473.993903 386.40138,482.772029 C386.661984,483.893434 387.145607,485.490855 387.914823,487.522084 C389.057282,490.538916 390.609996,493.907727 392.633555,497.58556 C398.145409,507.603393 406.265164,518.371654 417.45558,529.558586 C421.615459,533.717171 426.088534,537.81733 430.830568,541.852589 C440.166882,549.797376 450.112386,557.142741 460.055132,563.741066 C463.536416,566.051357 466.776222,568.108029 469.696777,569.889891 C471.48308,570.979735 472.791042,571.749736 473.542409,572.177993 L478.88834,546.105154 C478.725164,546.123767 478.308405,546.166528 477.653036,546.225826 C476.497711,546.33036 475.133184,546.436299 473.574484,546.536071 C448.888603,548.116198 420.317905,546.256352 393.561551,538.358792 C388.581347,536.888807 383.772375,535.228238 379.152283,533.371003 C363.346841,527.017357 347.945077,518.273059 333.195032,507.732263 C321.687051,499.508336 311.243571,490.680395 302.088097,481.866762 C298.900683,478.798356 296.110946,475.961288 293.745281,473.433256 C292.93286,472.565073 292.235836,471.802849 291.65745,471.156295 C291.333246,470.793881 291.133912,470.56632 291.062656,470.48332 C288.402971,467.385309 284.523348,465.60279 280.440261,465.602789 L133.186929,465.602775 C96.6761436,465.602772 67,435.857719 67,399.301753 L67,119.301014 C67,82.6710606 96.6410361,53 133.239224,53 L213,53 C213.012431,53.000016 213.214,53.003734 213.580192,53.0173551 C214.287548,53.0436665 215.135733,53.0922177 216.112288,53.1690899 C219.002819,53.3966259 222.265053,53.8097112 225.798745,54.4546814 C235.905017,56.29928 245.992479,59.6063905 255.292525,64.6826244 C267.009832,71.0782691 276.662423,79.8538019 283.742763,91.4355031 C292.303482,105.438742 297,123.358808 297,145.897608 C297,168.426275 292.308494,186.279394 283.763154,200.170361 C276.702409,211.64803 267.077891,220.299926 255.389665,226.560544 C246.240845,231.460968 236.316161,234.642764 226.346566,236.40165 C222.816767,237.024395 219.537966,237.420481 216.605595,237.634686 C215.588126,237.70901 214.69094,237.755321 213.925896,237.779499 C213.487431,237.793356 213.203719,237.797008 213.086554,237.796457 C213.101876,237.796538 213.101876,237.796538 213.130593,237.796781 C197.058931,237.646857 193.444115,260.274861 208.762603,265.139503 C208.812948,265.155491 209.022483,265.225126 209.380328,265.349686 C210.047718,265.581995 210.842208,265.871922 211.752892,266.220679 C214.431365,267.246433 217.447958,268.523072 220.715197,270.059185 C230.092144,274.467817 239.475151,280.024696 248.171677,286.767423 C272.354486,305.517216 286.5,329.435491 286.5,359.692823 C286.5,367.424809 292.768014,373.692823 300.5,373.692823 C308.231986,373.692823 314.5,367.424809 314.5,359.692823 C314.5,338.361795 309.018704,319.056948 298.87845,301.911062 C290.395553,287.567554 278.951,275.201545 265.328323,264.639398 C254.884224,256.541716 243.759418,249.953294 232.628553,244.720047 C228.718058,242.881503 225.069612,241.33746 221.766639,240.072546 C220.583817,239.61957 219.519786,239.231281 218.585004,238.905898 C217.981545,238.695843 217.528849,238.545397 217.237397,238.452842 L212.869407,265.795563 C212.905063,265.795871 212.905063,265.795871 212.954848,265.796147 C213.405592,265.798267 214.027745,265.79026 214.810363,265.765526 C215.954771,265.729359 217.236779,265.663184 218.645509,265.560279 C222.494211,265.279138 226.711645,264.769663 231.211338,263.975805 C243.924007,261.732971 256.631766,257.658938 268.610335,251.242802 C284.484609,242.739992 297.828841,230.744285 307.611846,214.841418 C318.972756,196.373569 325,173.437419 325,145.897608 C325,118.367928 318.977768,95.389456 307.632237,76.8309477 C297.868827,60.8604015 284.552668,48.7541808 268.707475,40.1054169 C256.570021,33.4804442 243.688733,29.2573956 230.826255,26.9097336 C226.320885,26.0874126 222.118274,25.5552506 218.309587,25.2554395 C216.941415,25.1477402 215.708057,25.0771411 214.62098,25.0367054 C213.910512,25.0102783 213.370381,25.0003154 213.012122,25.0000052 L133.239224,25 C81.1707137,25 39,67.21343 39,119.301014 L39,399.301753 C39,451.307172 81.1976132,493.60277 133.186926,493.602775 L280.440259,493.602789 L269.817865,488.722258 C270.011674,488.948008 270.336339,489.318648 270.78894,489.824592 C271.505228,490.625299 272.343421,491.541899 273.300629,492.564805 C275.991049,495.439883 279.12148,498.623425 282.669272,502.038753 C292.757248,511.750071 304.22884,521.447082 316.915199,530.51311 C333.378223,542.27805 350.692058,552.107919 368.708768,559.350475 C374.172752,561.546948 379.820597,563.497184 385.634992,565.213395 C402.741352,570.262606 420.834564,573.181384 439.273301,574.381677 C452.549756,575.245925 464.798019,575.155149 475.363086,574.478885 C477.170744,574.363178 478.779901,574.238247 480.176178,574.111912 C481.051769,574.032688 481.685062,573.96771 482.061619,573.924757 C495.512984,572.39041 499.16972,554.556008 487.40755,547.851919 C487.305153,547.793555 487.05469,547.648529 486.666178,547.419811 C485.985718,547.019222 485.186968,546.540741 484.27997,545.987371 C481.65365,544.385024 478.712654,542.518041 475.537689,540.411033 C466.462581,534.3885 457.39023,527.688013 448.976548,520.528345 C444.783723,516.960438 440.859126,513.363031 437.251487,509.756515 C427.917331,500.425264 421.395637,491.77632 417.165485,484.087989 C415.779343,481.568666 414.778335,479.396854 414.100094,477.605855 C413.894355,477.062571 413.746523,476.627755 413.648997,476.305623 C413.624718,476.225428 413.635757,476.266786 413.674615,476.433998 L400.037998,493.603014 L467.956295,493.603014 C519.918444,493.603014 562,451.379137 562,399.301986 L562,119.301202 C562,67.3013583 519.872194,25.0001747 467.95629,25.0001747 L400.037988,25.0001747 C392.306002,25.0001747 386.037988,31.2681882 386.037988,39.0001747 C386.037988,46.7321612 392.306002,53.0001747 400.037988,53.0001747 L400.037988,53.0001747 Z" id="Path-2"></path>
        </g>
    </g>
</svg>